<svg width="257" height="53" viewBox="0 0 257 53" fill="none" xmlns="http://www.w3.org/2000/svg">
<path d="M102.619 51.7039L106.471 31.9375H122.226C127.221 31.9375 128.948 33.9301 128.948 36.4806C128.948 39.4296 126.105 40.572 124.325 40.758C126.078 41.0502 128.257 42.2989 128.257 45.1948C128.257 48.3032 126.557 51.7039 119.171 51.7039H102.619ZM119.596 36.5603H112.582L112.024 39.4296H119.277C121.004 39.4296 121.429 38.6326 121.429 37.8621C121.429 37.0651 120.924 36.5603 119.596 36.5603ZM118.746 43.707H111.174L110.563 46.8685H118.374C120.393 46.8685 120.791 45.9387 120.791 45.1682C120.791 44.3978 120.446 43.707 118.746 43.707Z" fill="url(#paint0_linear_3749_3)"/>
<path d="M102.619 51.7039L106.471 31.9375H122.226C127.221 31.9375 128.948 33.9301 128.948 36.4806C128.948 39.4296 126.105 40.572 124.325 40.758C126.078 41.0502 128.257 42.2989 128.257 45.1948C128.257 48.3032 126.557 51.7039 119.171 51.7039H102.619ZM119.596 36.5603H112.582L112.024 39.4296H119.277C121.004 39.4296 121.429 38.6326 121.429 37.8621C121.429 37.0651 120.924 36.5603 119.596 36.5603ZM118.746 43.707H111.174L110.563 46.8685H118.374C120.393 46.8685 120.791 45.9387 120.791 45.1682C120.791 44.3978 120.446 43.707 118.746 43.707Z" fill="url(#paint1_linear_3749_3)"/>
<path d="M191.552 31.5922H192.721C202.551 31.5922 204.623 36.6666 204.623 40.7314C204.623 45.4605 202.152 52.0492 191.552 52.0492H190.383C180.579 52.0492 178.481 46.8154 178.481 42.724C178.481 38.1809 180.925 31.5922 191.552 31.5922ZM197.344 40.9174C197.344 39.0842 196.414 36.9057 192.136 36.9057C186.663 36.9057 185.787 40.5189 185.787 42.5646C185.787 44.3712 186.716 46.656 190.994 46.656C196.892 46.656 197.344 42.538 197.344 40.9174Z" fill="url(#paint2_linear_3749_3)"/>
<path d="M191.552 31.5922H192.721C202.551 31.5922 204.623 36.6666 204.623 40.7314C204.623 45.4605 202.152 52.0492 191.552 52.0492H190.383C180.579 52.0492 178.481 46.8154 178.481 42.724C178.481 38.1809 180.925 31.5922 191.552 31.5922ZM197.344 40.9174C197.344 39.0842 196.414 36.9057 192.136 36.9057C186.663 36.9057 185.787 40.5189 185.787 42.5646C185.787 44.3712 186.716 46.656 190.994 46.656C196.892 46.656 197.344 42.538 197.344 40.9174Z" fill="url(#paint3_linear_3749_3)"/>
<path d="M214.056 45.1151C214.056 45.8855 214.136 47.453 217.749 47.453H217.935C221.575 47.453 222.159 46.4435 222.159 45.5933C222.159 44.69 221.601 44.0258 218.865 43.9461L216.607 43.893C209.938 43.707 208.211 41.2096 208.211 37.9418C208.211 35.0194 209.965 31.6719 218.971 31.6719H220.06C229.864 31.6719 231.139 34.8068 230.687 37.995H223.275C223.275 37.2511 223.036 36.0821 219.609 36.0821H219.396C215.969 36.0821 215.517 36.8791 215.517 37.7293C215.517 38.5263 216.075 39.0577 218.679 39.1374L220.964 39.1905C228.11 39.3765 229.598 41.6879 229.598 45.2479C229.598 48.4095 227.765 52.0227 217.935 52.0227H217.297C206.962 52.0227 206.112 47.9313 206.484 45.1151H214.056Z" fill="url(#paint4_linear_3749_3)"/>
<path d="M214.056 45.1151C214.056 45.8855 214.136 47.453 217.749 47.453H217.935C221.575 47.453 222.159 46.4435 222.159 45.5933C222.159 44.69 221.601 44.0258 218.865 43.9461L216.607 43.893C209.938 43.707 208.211 41.2096 208.211 37.9418C208.211 35.0194 209.965 31.6719 218.971 31.6719H220.06C229.864 31.6719 231.139 34.8068 230.687 37.995H223.275C223.275 37.2511 223.036 36.0821 219.609 36.0821H219.396C215.969 36.0821 215.517 36.8791 215.517 37.7293C215.517 38.5263 216.075 39.0577 218.679 39.1374L220.964 39.1905C228.11 39.3765 229.598 41.6879 229.598 45.2479C229.598 48.4095 227.765 52.0227 217.935 52.0227H217.297C206.962 52.0227 206.112 47.9313 206.484 45.1151H214.056Z" fill="url(#paint5_linear_3749_3)"/>
<path d="M237.925 51.7039L240.715 37.3308H232.957L233.993 31.9375H256.469L255.433 37.3308H247.675L244.886 51.7039H237.925Z" fill="url(#paint6_linear_3749_3)"/>
<path d="M237.925 51.7039L240.715 37.3308H232.957L233.993 31.9375H256.469L255.433 37.3308H247.675L244.886 51.7039H237.925Z" fill="url(#paint7_linear_3749_3)"/>
<path fillRule="evenodd" clipRule="evenodd" d="M154.4 4.62866C167.467 4.62866 178.062 15.2198 178.062 28.287C178.062 41.3542 167.467 51.952 154.4 51.952C141.333 51.952 130.738 41.3543 130.738 28.287C130.738 15.2197 141.333 4.62866 154.4 4.62866Z" fill="url(#paint8_linear_3749_3)"/>
<path fillRule="evenodd" clipRule="evenodd" d="M154.4 4.62866C167.467 4.62866 178.062 15.2198 178.062 28.287C178.062 41.3542 167.467 51.952 154.4 51.952C141.333 51.952 130.738 41.3543 130.738 28.287C130.738 15.2197 141.333 4.62866 154.4 4.62866Z" fill="url(#paint9_linear_3749_3)"/>
<path fillRule="evenodd" clipRule="evenodd" d="M153.421 29.3014L153.391 29.2697C153.357 29.2356 153.317 29.2085 153.272 29.1899C153.228 29.1713 153.181 29.1617 153.132 29.1615C153.084 29.1613 153.037 29.1706 152.992 29.1889C152.948 29.2071 152.907 29.234 152.873 29.2679C152.839 29.3017 152.812 29.342 152.793 29.3864C152.775 29.4308 152.765 29.4784 152.765 29.5265C152.765 29.5746 152.774 29.6222 152.792 29.6667C152.81 29.7113 152.837 29.7517 152.871 29.7859L152.904 29.8175C152.938 29.8514 152.978 29.8784 153.023 29.8968C153.067 29.9152 153.114 29.9247 153.162 29.9247C153.21 29.9248 153.258 29.9154 153.302 29.8971C153.346 29.8787 153.387 29.8519 153.421 29.818C153.455 29.7841 153.482 29.7439 153.5 29.6996C153.518 29.6552 153.528 29.6078 153.528 29.5598C153.528 29.5118 153.519 29.4643 153.5 29.42C153.482 29.3756 153.455 29.3353 153.421 29.3014ZM156.887 25.285L154.31 27.8616C154.275 27.8956 154.247 27.9361 154.228 27.9809C154.209 28.0257 154.199 28.0738 154.199 28.1225C154.199 28.1711 154.208 28.2194 154.226 28.2644C154.245 28.3094 154.272 28.3502 154.307 28.3846C154.341 28.419 154.382 28.4462 154.427 28.4646C154.472 28.4831 154.52 28.4924 154.569 28.492C154.618 28.4916 154.666 28.4816 154.711 28.4625C154.755 28.4434 154.796 28.4156 154.83 28.3807L157.404 25.8039C157.439 25.7699 157.466 25.7295 157.484 25.6851C157.503 25.6406 157.512 25.593 157.512 25.5449C157.512 25.4968 157.503 25.4491 157.484 25.4046C157.466 25.3601 157.439 25.3197 157.405 25.2856C157.371 25.2516 157.331 25.2245 157.286 25.2061C157.242 25.1876 157.194 25.1781 157.146 25.178C157.098 25.178 157.05 25.1874 157.006 25.2058C156.961 25.2241 156.921 25.2511 156.887 25.285H156.887ZM162.436 20.2533C162.772 20.59 162.982 21.0329 163.028 21.5066C163.075 21.9803 162.956 22.4555 162.691 22.8512C162.427 23.2469 162.033 23.5387 161.578 23.6768C161.122 23.8148 160.633 23.7907 160.193 23.6085C159.753 23.4263 159.39 23.0973 159.166 22.6775C158.942 22.2577 158.87 21.7731 158.963 21.3062C159.056 20.8394 159.308 20.4192 159.676 20.1173C160.043 19.8153 160.505 19.6503 160.981 19.6503C161.251 19.6497 161.519 19.7026 161.769 19.8061C162.018 19.9096 162.245 20.0616 162.436 20.2533ZM160.981 18.9163C160.335 18.9165 159.709 19.1405 159.21 19.5503C158.711 19.96 158.37 20.5301 158.244 21.1634C158.118 21.7968 158.215 22.4542 158.52 23.0236C158.824 23.5931 159.317 24.0394 159.913 24.2865C160.51 24.5337 161.174 24.5663 161.791 24.3789C162.409 24.1915 162.943 23.7957 163.302 23.2589C163.661 22.722 163.823 22.0774 163.759 21.4347C163.696 20.7921 163.412 20.1913 162.956 19.7345C162.697 19.4747 162.389 19.2687 162.05 19.1283C161.711 18.9878 161.348 18.9158 160.981 18.9163ZM167.242 23.2477C164.752 29.1817 159.971 33.7877 152.898 37.0658C152.686 35.2097 151.85 33.4804 150.529 32.1595C149.208 30.8387 147.478 30.0041 145.622 29.7917C147.727 25.2484 150.376 21.6515 153.57 19.0008C155.337 17.5317 157.313 16.3338 159.432 15.4464C161.628 15.7144 163.449 16.5693 164.786 17.905C166.12 19.2381 166.975 21.055 167.242 23.2474L167.242 23.2477ZM160.758 14.9361C162.576 15.3583 164.114 16.1968 165.305 17.3863C166.491 18.5742 167.33 20.1084 167.754 21.9245C168.664 19.3315 169.166 16.5006 169.258 13.4319C166.186 13.5232 163.352 14.0246 160.758 14.9361H160.758ZM152.194 37.3853C152.047 35.6072 151.273 33.9392 150.011 32.6778C148.75 31.4164 147.081 30.6433 145.303 30.4961C144.695 31.8743 144.135 33.3361 143.622 34.8817L147.81 39.0669C149.356 38.555 150.817 37.9944 152.195 37.3853H152.194ZM144.01 36.3066C142.497 36.979 141.375 37.8867 140.643 39.0298C139.928 40.1481 139.579 41.5022 139.598 43.092C141.188 43.1114 142.542 42.7629 143.661 42.0467C144.803 41.3149 145.71 40.1928 146.384 38.6804L144.01 36.3066ZM149.399 22.2097H144.547C142.225 24.2203 140.495 26.8261 139.543 29.7467H144.836C146.145 26.8714 147.666 24.3591 149.399 22.2097ZM152.943 37.8554V43.1487C155.863 42.1971 158.469 40.4672 160.48 38.145V33.2955C158.332 35.0272 155.819 36.5471 152.943 37.8554Z" fill="black"/>
<path d="M15.8085 4.91487C26.5949 4.91487 27.9764 9.59077 27.5514 13.2571H20.2718C20.2453 12.5398 20.0327 10.2018 15.224 10.2018C10.3355 10.2018 9.16656 13.4165 9.16656 15.781C9.16656 17.8002 10.2027 19.9521 14.0816 19.9521C18.6778 19.9521 19.4482 17.3751 19.5545 16.9234H26.8606C26.4355 19.9256 24.8149 25.3188 14.6661 25.3188H13.4971C3.90617 25.3188 1.78076 20.4569 1.78076 15.967C1.78076 11.6365 4.25155 4.91487 14.6395 4.91487H15.8085ZM38.5983 10.2284L37.9341 13.6822H45.2136C47.2859 13.6822 47.711 12.5929 47.711 11.7693C47.711 10.9192 47.3125 10.2284 45.6387 10.2284H38.5983ZM49.9161 15.4888C51.8821 15.9936 54.0872 17.2688 53.3168 21.1743L52.9183 23.2465C52.7057 24.2295 52.8651 24.6015 52.998 24.8672L52.9714 25H45.745C45.6653 24.8672 45.5856 24.5218 45.7184 23.7779L46.0372 22.0776C46.542 19.5271 45.6122 18.7832 42.8491 18.7832H36.9245L35.729 25H28.7151L32.5675 5.23368H47.6579C53.8481 5.23368 55.2562 7.97015 55.2562 10.3081C55.2562 13.815 52.2541 15.17 49.9161 15.4888ZM62.2825 25L63.6375 17.933L56.0126 5.23368H63.9828L67.968 12.2475L74.7162 5.23368H82.8459L70.6248 17.9596L69.2432 25H62.2825ZM97.0454 19.0489H88.9689L87.8265 25H80.8126L84.6649 5.23368H97.7893C104.564 5.23368 106.53 7.65134 106.53 11.6896C106.53 15.5419 104.511 19.0489 97.0454 19.0489ZM90.6692 10.2284L89.9519 14.0807H96.5406C98.6661 14.0807 99.2505 12.9914 99.2505 11.8756C99.2505 10.9192 98.7723 10.2284 97.0189 10.2284H90.6692ZM113.636 25L116.426 10.6269H108.668L109.704 5.23368H132.18L131.144 10.6269H123.386L120.597 25H113.636Z" fill="white"/>
<defs>
<linearGradient id="paint0_linear_3749_3" x1="107" y1="39.4082" x2="253.5" y2="36.4082" gradientUnits="userSpaceOnUse">
<stop stop-color="#52188B"/>
<stop offset="0.441942" stop-color="#9F3DFF"/>
<stop offset="1" stop-color="#52188B"/>
</linearGradient>
<linearGradient id="paint1_linear_3749_3" x1="102.619" y1="28.339" x2="256.469" y2="28.339" gradientUnits="userSpaceOnUse">
<stop stop-color="#A24604"/>
<stop offset="0.536458" stop-color="#FF6C01"/>
<stop offset="1" stop-color="#A14604"/>
</linearGradient>
<linearGradient id="paint2_linear_3749_3" x1="107" y1="39.4082" x2="253.5" y2="36.4082" gradientUnits="userSpaceOnUse">
<stop stop-color="#52188B"/>
<stop offset="0.441942" stop-color="#9F3DFF"/>
<stop offset="1" stop-color="#52188B"/>
</linearGradient>
<linearGradient id="paint3_linear_3749_3" x1="102.619" y1="28.339" x2="256.469" y2="28.339" gradientUnits="userSpaceOnUse">
<stop stop-color="#A24604"/>
<stop offset="0.536458" stop-color="#FF6C01"/>
<stop offset="1" stop-color="#A14604"/>
</linearGradient>
<linearGradient id="paint4_linear_3749_3" x1="107" y1="39.4082" x2="253.5" y2="36.4082" gradientUnits="userSpaceOnUse">
<stop stop-color="#52188B"/>
<stop offset="0.441942" stop-color="#9F3DFF"/>
<stop offset="1" stop-color="#52188B"/>
</linearGradient>
<linearGradient id="paint5_linear_3749_3" x1="102.619" y1="28.339" x2="256.469" y2="28.339" gradientUnits="userSpaceOnUse">
<stop stop-color="#A24604"/>
<stop offset="0.536458" stop-color="#FF6C01"/>
<stop offset="1" stop-color="#A14604"/>
</linearGradient>
<linearGradient id="paint6_linear_3749_3" x1="107" y1="39.4082" x2="253.5" y2="36.4082" gradientUnits="userSpaceOnUse">
<stop stop-color="#52188B"/>
<stop offset="0.441942" stop-color="#9F3DFF"/>
<stop offset="1" stop-color="#52188B"/>
</linearGradient>
<linearGradient id="paint7_linear_3749_3" x1="102.619" y1="28.339" x2="256.469" y2="28.339" gradientUnits="userSpaceOnUse">
<stop stop-color="#A24604"/>
<stop offset="0.536458" stop-color="#FF6C01"/>
<stop offset="1" stop-color="#A14604"/>
</linearGradient>
<linearGradient id="paint8_linear_3749_3" x1="107" y1="39.4082" x2="253.5" y2="36.4082" gradientUnits="userSpaceOnUse">
<stop stop-color="#52188B"/>
<stop offset="0.441942" stop-color="#9F3DFF"/>
<stop offset="1" stop-color="#52188B"/>
</linearGradient>
<linearGradient id="paint9_linear_3749_3" x1="102.619" y1="28.339" x2="256.469" y2="28.339" gradientUnits="userSpaceOnUse">
<stop stop-color="#A24604"/>
<stop offset="0.536458" stop-color="#FF6C01"/>
<stop offset="1" stop-color="#A14604"/>
</linearGradient>
</defs>
</svg>
