<svg width="159" height="42" viewBox="0 0 159 42" fill="none" xmlns="http://www.w3.org/2000/svg">
<g id="Frame" clip-path="url(#clip0_3669_209)">
<path id="Vector" fill-rule="evenodd" clip-rule="evenodd" d="M0.625693 21.1707C0.658944 25.2646 1.88748 29.2609 4.16195 32.667C6.46803 36.1204 9.74576 38.8121 13.5807 40.4017C17.4155 41.9908 21.6353 42.4067 25.7063 41.5963C29.7775 40.7861 33.517 38.7862 36.4521 35.8492C39.3872 32.9124 41.386 29.1705 42.1957 25.0969C43.0055 21.0233 42.5899 16.8009 41.0017 12.9637C39.4132 9.12639 36.723 5.84663 33.2719 3.53913C29.8678 1.26326 25.874 0.0339644 21.7827 0.000693737L21.612 0H10.8626H0.625V21L0.625693 21.1707ZM11.3803 21.1707C11.413 23.1363 12.0107 25.0523 13.1034 26.6888C14.2279 28.3726 15.8261 29.685 17.696 30.46C19.5658 31.2351 21.6234 31.4378 23.6084 31.0428C25.5934 30.6476 27.4168 29.6724 28.848 28.2405C30.2792 26.8084 31.2538 24.9839 31.6485 22.9977C32.0434 21.0113 31.8408 18.9525 31.0663 17.0815C30.2917 15.2105 28.9801 13.6113 27.2973 12.4861C25.6618 11.3927 23.747 10.7947 21.7827 10.7619V21.1707H11.3803ZM111.422 31.1516C110.522 31.325 109.543 31.4117 108.484 31.4117C106.801 31.4117 105.568 31.1155 104.784 30.523C104.001 29.9161 103.515 29.1431 103.326 28.2039C103.137 27.2648 103.043 25.986 103.043 24.3677V11.3199H100.192V8.11218H103.043V2.39024H107.134V8.11218H110.878V11.3199H107.134V24.5844C107.134 26.1594 107.33 27.1636 107.722 27.597C108.128 28.0161 108.68 28.2256 109.376 28.2256C110.087 28.2256 110.769 28.1678 111.422 28.0523V31.1516ZM63.5439 7.59199C60.9759 7.59199 58.7778 8.68291 56.9498 10.8647V8.11218H52.8367V39.9512H56.9498V29.3309C58.6619 30.8771 60.7657 31.6502 63.261 31.6502C66.0756 31.6502 68.4042 30.5592 70.2467 28.3773C72.1037 26.1811 73.0323 23.1973 73.0323 19.4259C73.0323 15.7992 72.2055 12.9238 70.5514 10.7997C68.8974 8.66125 66.5615 7.59199 63.5439 7.59199ZM62.9998 28.4423C60.722 28.4423 58.7052 27.5104 56.9498 25.6464V14.7228C58.8215 12.093 60.8961 10.7781 63.174 10.7781C64.944 10.7781 66.3223 11.515 67.3089 12.9889C68.2954 14.4482 68.7889 16.594 68.7889 19.4259C68.7889 22.4169 68.2664 24.671 67.2219 26.1883C66.1772 27.691 64.77 28.4423 62.9998 28.4423ZM92.2705 19.9678V25.0612C91.5453 26.1016 90.5513 26.9252 89.2893 27.5321C88.027 28.139 86.7211 28.4423 85.3717 28.4423C83.8921 28.4423 82.7168 28.1317 81.8462 27.5104C80.9757 26.8746 80.5406 25.9715 80.5406 24.8011C80.5406 21.5789 83.5149 19.9678 89.4633 19.9678H92.2705ZM84.1968 31.6502C87.4902 31.6502 90.1813 30.6819 92.2705 28.7457V31.1082H96.3621V16.2399C96.3621 12.8155 95.5349 10.518 93.8811 9.34759C92.2271 8.17719 89.9202 7.59199 86.9606 7.59199C80.6204 7.59199 77.298 9.95444 76.9933 14.6794H81.0845C81.2006 12.0785 83.0867 10.7781 86.7429 10.7781C88.4839 10.7781 89.7534 11.0237 90.5513 11.515C91.3494 12.0063 91.8354 12.6275 92.0094 13.379C92.1834 14.1159 92.2705 15.308 92.2705 16.9552H90.2683C80.9685 16.9552 76.3186 19.6427 76.3186 25.0179C76.3186 26.9686 77.0584 28.5651 78.5384 29.8078C80.0181 31.036 81.9043 31.6502 84.1968 31.6502ZM116.493 28.4857C118.552 30.5953 121.28 31.6502 124.675 31.6502C127.315 31.6502 129.55 31.0071 131.378 29.7211C133.221 28.4352 134.301 26.6072 134.621 24.2376H130.377C130.319 25.5814 129.71 26.6217 128.549 27.3587C127.403 28.0811 126.112 28.4423 124.675 28.4423C122.775 28.4423 121.172 27.7993 119.866 26.5133C118.574 25.2274 117.842 23.2551 117.667 20.5963H135.056V19.621C135.056 15.792 134.07 12.8298 132.096 10.7347C130.137 8.63958 127.512 7.59199 124.218 7.59199C120.998 7.59199 118.386 8.66125 116.384 10.7997C114.396 12.9238 113.402 15.8642 113.402 19.621C113.402 23.4067 114.432 26.3617 116.493 28.4857ZM128.484 12.4252C129.645 13.5234 130.392 15.1779 130.725 17.3886H117.755C118.074 15.1634 118.821 13.509 119.996 12.4252C121.172 11.3271 122.579 10.7781 124.218 10.7781C125.902 10.7781 127.322 11.3271 128.484 12.4252ZM158.625 31.1082H153.533L147.787 22.1353L142.042 31.1082H136.949L145.481 19.1659L137.624 8.11218H142.717L147.787 16.1532L152.858 8.11218H157.95L150.094 19.1225L158.625 31.1082Z" fill="white"/>
</g>
<defs>
<clipPath id="clip0_3669_209">
<rect width="158" height="42" fill="white" transform="translate(0.625)"/>
</clipPath>
</defs>
</svg>
