<svg width="170" height="42" viewBox="0 0 170 42" fill="none" xmlns="http://www.w3.org/2000/svg">
<g id="Frame" clip-path="url(#clip0_3669_201)">
<g id="Clip path group">
<mask id="mask0_3669_201" style="mask-type:luminance" maskUnits="userSpaceOnUse" x="-1" y="0" width="171" height="42">
<g id="clip0_17_305">
<path id="Vector" d="M169.999 0H-0.000976562V42H169.999V0Z" fill="white"/>
</g>
</mask>
<g mask="url(#mask0_3669_201)">
<g id="Group">
<path id="Vector_2" d="M33.1865 4.66868H38.2939V1.06262H27.1896V13.7983H30.5021V7.35122C33.4763 11.1007 34.821 14.907 34.821 19.8958C34.821 29.7471 28.2141 37.7397 18.9993 37.7397C9.91195 37.7397 4.02669 30.6179 4.02669 20.894C4.02669 14.311 6.70233 7.85273 12.4369 5.06309C12.4361 12.2591 12.4369 20.3467 12.4369 27.5428H9.48291V31.8045H20.2248C25.8077 31.8045 29.7447 28.7838 29.7447 23.1173C29.7447 18.4322 26.9311 15.6616 23.0088 14.787C23.7038 13.909 24.1642 13.1341 24.5317 12.0125C25.9414 7.70763 24.1091 2.44269 20.1127 0.720015C18.7 0.110947 17.073 -0.109385 15.3685 0.0506824C5.85749 0.944881 -0.000976562 11.3969 -0.000976562 20.894C-0.000976562 32.9595 7.78138 42.0014 18.9993 42.0014C30.6814 42.0014 38.6992 32.0277 38.6992 19.8958C38.6992 13.9827 36.9849 8.95448 33.1865 4.66868ZM16.615 4.39542C17.8592 4.34988 18.9332 4.70114 19.8226 5.79154C21.267 7.56268 21.1775 11.2223 19.8153 12.9949C18.9499 14.1207 17.902 14.3788 16.615 14.3788V4.39542ZM18.7011 18.6404C22.0316 18.6404 25.5574 19.1864 25.5574 23.1675C25.5574 26.9882 22.014 27.5428 18.7011 27.5428H16.615V18.6404H18.7011Z" fill="#FF8000"/>
<path id="Vector_3" d="M58.6665 32.7615V9.89444H55.2305V6.07561H64.593C67.1659 6.07561 69.0978 6.2402 70.3807 6.5772C71.6713 6.91415 72.8027 7.76774 73.7896 9.1382C74.776 10.508 75.2657 12.1108 75.2657 13.96C75.2657 15.3754 74.9693 16.6559 74.3829 17.8014C73.7896 18.9396 72.9267 19.808 71.7883 20.3921C73.3547 20.9761 74.5621 21.9421 75.4039 23.2971C76.2525 24.6451 76.673 26.1873 76.673 27.9246C76.673 29.4295 76.3625 30.8001 75.7351 32.0203C75.1067 33.2487 74.2723 34.1992 73.2372 34.8732C72.2024 35.5394 71.064 35.9966 69.8294 36.2284C68.6011 36.4603 66.9177 36.5806 64.7925 36.5806H55.2305V32.7615H58.6665ZM62.9298 18.7898H65.5724C67.594 18.7898 69.0009 18.4079 69.8013 17.6366C70.602 16.8654 71.0018 15.7349 71.0018 14.2446C71.0018 11.3468 69.1944 9.89444 65.5724 9.89444H62.9298V18.7898ZM62.9298 32.7615H64.5233C66.6141 32.7615 68.1453 32.6492 69.1115 32.4246C70.0846 32.2002 70.8778 31.6611 71.4921 30.8224C72.1057 29.9837 72.4093 28.9131 72.4093 27.5955C72.4093 26.3969 72.1195 25.3938 71.5335 24.5854C70.9465 23.7763 70.1878 23.2374 69.2631 22.9679C68.3459 22.6983 67.042 22.5632 65.3586 22.5632H62.9298V32.7615ZM82.7996 32.7615V9.89444H78.95V6.07561H90.3611C92.7484 6.07561 94.6383 6.27745 96.0393 6.68204C97.4398 7.07894 98.5989 7.93236 99.5167 9.22815C100.434 10.5158 100.889 12.1333 100.889 14.0648C100.889 18.101 98.9643 20.6391 95.1078 21.6802L100.068 32.7615H103.497V36.5806H97.3919L91.0167 22.3388H87.0633V32.7615H90.6652V36.5806H78.95V32.7615H82.7996ZM87.0633 18.5203H90.368C91.9689 18.5203 93.1489 18.4079 93.9071 18.1833C94.6664 17.9513 95.2939 17.4945 95.7767 16.7982C96.2599 16.1016 96.5014 15.1658 96.5014 13.9978C96.5014 13.0016 96.2535 12.163 95.7634 11.4742C95.2737 10.7853 94.6733 10.3512 93.9485 10.1712C93.2308 9.9841 92.1344 9.89444 90.6509 9.89444H87.0633V18.5203ZM121.353 25.289H125.513C124.975 32.4345 121.081 37.0746 115.392 37.0746C108.148 37.0746 105.153 30.4954 105.153 21.448C105.153 12.151 107.758 5.69451 114.73 5.58151C117.069 5.54371 119.617 6.64336 120.991 8.84619V6.07561H124.634V15.8693H120.991C120.312 12.2863 118.785 9.625 115.517 9.625C110.345 9.625 109.491 15.0169 109.491 21.2384C109.491 27.3965 110.597 32.9412 115.655 32.9412C119.117 32.9412 120.915 29.8157 121.353 25.289ZM146.372 25.289L146.112 36.5806H128.161C128.161 28.5917 132.234 24.4258 137.742 20.0698C139.771 18.4659 141.917 16.98 141.917 14.0049C141.917 10.9824 140.187 9.1754 137.454 9.1754C134.204 9.1754 132.714 11.8011 132.93 15.902H128.885C128.717 9.48855 132.048 5.58151 137.364 5.58151C142.113 5.58151 146.085 8.32539 146.085 13.855C146.085 18.8196 142.666 21.2327 139.277 23.836C136.793 25.7444 133.577 29.0537 133.114 32.6273H142.78L142.936 25.289H146.372ZM150.39 21.3354C150.39 16.3036 151.258 12.4228 153.005 9.68491C154.747 6.95155 157.131 5.58151 160.152 5.58151C163.27 5.58151 165.678 7.00425 167.362 9.84175C169.045 12.68 169.887 16.5132 169.887 21.3354C169.887 26.345 169.015 30.2156 167.279 32.9564C165.54 35.7021 163.167 37.0746 160.152 37.0746C156.999 37.0746 154.584 35.6433 152.908 32.7917C151.233 29.9397 150.39 26.1199 150.39 21.3354ZM154.529 21.3354C154.529 25.7006 155.015 28.8225 155.985 30.7023C156.953 32.5793 158.345 33.5256 160.159 33.5256C161.973 33.5256 163.365 32.5793 164.333 30.6951C165.303 28.8077 165.789 25.6858 165.789 21.3354C165.789 16.9178 165.297 13.7804 164.313 11.9159C163.332 10.0606 161.946 9.1304 160.159 9.1304C158.145 9.1304 156.699 10.1892 155.834 12.3056C154.969 14.418 154.529 17.4271 154.529 21.3354Z" fill="white"/>
</g>
</g>
</g>
</g>
<defs>
<clipPath id="clip0_3669_201">
<rect width="170" height="42" fill="white"/>
</clipPath>
</defs>
</svg>
