<svg width="236" height="26" viewBox="0 0 236 26" fill="none" xmlns="http://www.w3.org/2000/svg">
<path d="M3.40152 26H0.511523L0.511523 6.246L6.66552 0.499998L22.6115 0.499998L28.7655 6.246V23.28V26H26.3855H23.5635V17.908H10.2355L7.44752 15.528V12.706H23.5635V7.334L21.4895 5.702H7.75352L5.71352 7.334L5.71352 23.28L3.40152 26ZM54.3221 26L48.5081 19.506H35.9961V26H33.2081L30.7941 23.178V7.096L38.1721 0.499998L59.4901 0.499998V13.76L54.5601 18.384L61.1561 26H54.3221ZM35.9961 14.304H52.2481L54.2881 12.638V5.702H38.8521L35.9961 8.15V14.304ZM91.9556 0.499998L87.0936 5.702H79.0016V23.348L77.1656 26H73.7996V5.702H65.7076L60.8456 0.499998L91.9556 0.499998ZM92.281 7.674V0.499998H97.483V6.824L101.053 11.89L113.259 11.89L116.863 6.824V0.499998L122.065 0.499998V7.674L115.129 17.092H109.791V26H104.589V17.092H99.183L92.281 7.674ZM128.985 15.868V26H125.857L123.783 23.11V0.499998H149.249L145.611 5.702H128.985V10.632H142.347V13.488L139.559 15.868H128.985ZM151.328 26H148.438V6.246L154.592 0.499998L170.538 0.499998L176.692 6.246V23.28V26H174.312H171.49V17.908H158.162L155.374 15.528V12.706H171.49V7.334L169.416 5.702H155.68L153.64 7.334V23.28L151.328 26ZM184.263 5.702V19.914L185.147 20.798H200.651L204.289 26H184.297L179.061 20.764V0.499998L204.527 0.499998L200.889 5.702H184.263ZM235.665 0.499998L230.803 5.702H222.711V23.348L220.875 26H217.509V5.702H209.417L204.555 0.499998L235.665 0.499998Z" fill="white"/>
</svg>
