<svg width="210" height="42" viewBox="0 0 210 42" fill="none" xmlns="http://www.w3.org/2000/svg">
<path d="M53.2533 10.8304H56.1367V28.1166H67.6561V10.8304H70.5395V28.1166C70.5395 28.5104 70.4645 28.8855 70.3145 29.2418C70.1644 29.5888 69.9582 29.8935 69.6956 30.1561C69.4331 30.4186 69.1236 30.6249 68.7673 30.775C68.4204 30.925 68.05 31 67.6561 31H56.1367C55.7428 31 55.3678 30.925 55.0114 30.775C54.6645 30.6249 54.3597 30.4186 54.0972 30.1561C53.8346 29.8935 53.6283 29.5888 53.4783 29.2418C53.3283 28.8855 53.2533 28.5104 53.2533 28.1166V10.8304ZM78.613 31H75.7296V10.8304H78.613L90.7373 26.471V10.8304H93.6207V31H90.7373L78.613 15.3594V31ZM101.68 10.8304V31H98.7967V10.8304H101.68ZM106.87 13.7138C106.87 13.3199 106.945 12.9495 107.095 12.6026C107.245 12.2463 107.452 11.9415 107.714 11.6883C107.977 11.4258 108.281 11.2195 108.628 11.0695C108.985 10.9101 109.36 10.8304 109.754 10.8304H120.696C121.09 10.8304 121.461 10.9101 121.808 11.0695C122.164 11.2195 122.473 11.4258 122.736 11.6883C122.998 11.9415 123.205 12.2463 123.355 12.6026C123.505 12.9495 123.58 13.3199 123.58 13.7138V16.3158H120.696V13.7138H109.754V28.1166H120.696V23.2219H115.225V20.3385H123.58V28.1166C123.58 28.5104 123.505 28.8855 123.355 29.2418C123.205 29.5888 122.998 29.8935 122.736 30.1561C122.473 30.4186 122.164 30.6249 121.808 30.775C121.461 30.925 121.09 31 120.696 31H109.754C109.36 31 108.985 30.925 108.628 30.775C108.281 30.6249 107.977 30.4186 107.714 30.1561C107.452 29.8935 107.245 29.5888 107.095 29.2418C106.945 28.8855 106.87 28.5104 106.87 28.1166V13.7138ZM144.692 18.0318C144.692 20.8449 143.492 22.4483 141.091 22.8421L144.889 31H141.696L137.954 22.9406H131.639V31H128.756V10.8304H139.797C143.06 10.8304 144.692 12.4666 144.692 15.7392V18.0318ZM131.639 20.0572H139.642C140.411 20.0572 140.964 19.8884 141.302 19.5508C141.64 19.2133 141.808 18.66 141.808 17.8911V15.8798C141.808 15.1109 141.64 14.5577 141.302 14.2201C140.964 13.8825 140.411 13.7138 139.642 13.7138H131.639V20.0572ZM158.448 10.8304L166.226 31H163.342L161.556 26.3585H152.456L150.67 31H147.786L155.564 10.8304H158.448ZM153.553 23.4751H160.445L157.013 14.5858L153.553 23.4751ZM169.686 31V10.8304H180.727C183.99 10.8304 185.622 12.4666 185.622 15.7392V18.6085C185.622 21.881 183.99 23.5173 180.727 23.5173H172.569V31H169.686ZM172.569 20.6339H180.572C181.341 20.6339 181.894 20.4651 182.232 20.1275C182.57 19.79 182.738 19.2367 182.738 18.4678V15.8798C182.738 15.1109 182.57 14.5577 182.232 14.2201C181.894 13.8825 181.341 13.7138 180.572 13.7138H172.569V20.6339ZM206.973 10.8304V31H204.09V22.3639H192.542V31H189.659V10.8304H192.542V19.4805H204.09V10.8304H206.973Z" fill="white"/>
<g clip-path="url(#clip0_4174_2)">
<path d="M42.4621 0.349976H1.16211V41.65H42.4621V0.349976Z" fill="#FAC300"/>
<path d="M42.4621 0.349976H1.16211V41.65H42.4621V0.349976Z" stroke="#FAC300" stroke-width="0.7"/>
<path d="M7.46094 21.0216L21.7894 35.35L36.1609 20.9785L21.8325 6.65002L7.46094 21.0216ZM21.8011 27.5893L15.2216 21.0099L28.4002 20.9902L21.8011 27.5893Z" fill="black"/>
</g>
<defs>
<clipPath id="clip0_4174_2">
<rect width="42" height="42" fill="white" transform="translate(0.811523)"/>
</clipPath>
</defs>
</svg>
