<svg width="220" height="42" viewBox="0 0 220 42" fill="none" xmlns="http://www.w3.org/2000/svg">
<g clip-path="url(#clip0_4174_8)">
<path d="M89.2014 32.0378C87.5305 32.0378 86.0291 31.7472 84.6972 31.166C83.3895 30.5606 82.3603 29.7372 81.6096 28.6959C80.859 27.6304 80.4714 26.4075 80.4473 25.0272H83.9707C84.0918 26.2137 84.5761 27.2188 85.4237 28.0421C86.2955 28.8412 87.5547 29.2408 89.2014 29.2408C90.7755 29.2408 92.0106 28.8534 92.9065 28.0784C93.8268 27.2793 94.2868 26.2622 94.2868 25.0272C94.2868 24.0586 94.0204 23.2715 93.4877 22.6661C92.955 22.0607 92.289 21.6005 91.4899 21.2858C90.6907 20.971 89.6131 20.6319 88.257 20.2687C86.5861 19.8328 85.2421 19.3969 84.225 18.961C83.2321 18.5251 82.3725 17.8471 81.646 16.9268C80.9437 15.9824 80.5926 14.7232 80.5926 13.1491C80.5926 11.7688 80.9437 10.5459 81.646 9.48036C82.3483 8.41484 83.329 7.5915 84.5882 7.01031C85.8717 6.42912 87.3367 6.13852 88.9835 6.13852C91.3567 6.13852 93.2939 6.73182 94.7954 7.91842C96.321 9.10501 97.1806 10.6791 97.3744 12.6406H93.742C93.6209 11.672 93.1123 10.8244 92.2163 10.0979C91.3204 9.34718 90.1337 8.97182 88.6566 8.97182C87.2762 8.97182 86.1502 9.33506 85.2784 10.0616C84.4066 10.7638 83.9707 11.7566 83.9707 13.0401C83.9707 13.9604 84.225 14.7111 84.7335 15.2923C85.2663 15.8734 85.9081 16.3215 86.6587 16.6363C87.4337 16.9268 88.5113 17.2659 89.8916 17.6533C91.5625 18.1134 92.9065 18.5736 93.9236 19.0337C94.9407 19.4696 95.8125 20.1597 96.5389 21.1041C97.2654 22.0244 97.6287 23.2836 97.6287 24.8819C97.6287 26.1169 97.3018 27.2793 96.6479 28.369C95.9941 29.4587 95.0255 30.3427 93.742 31.0207C92.4585 31.6987 90.945 32.0378 89.2014 32.0378ZM118.693 11.8778V31.7835H115.388V28.8412C114.759 29.8583 113.875 30.6574 112.736 31.2386C111.623 31.7956 110.387 32.0741 109.031 32.0741C107.482 32.0741 106.089 31.7593 104.854 31.1297C103.619 30.4758 102.638 29.5072 101.912 28.2237C101.21 26.9402 100.858 25.3783 100.858 23.5379V11.8778H104.128V23.102C104.128 25.0635 104.624 26.577 105.617 27.6425C106.61 28.6838 107.966 29.2045 109.685 29.2045C111.453 29.2045 112.845 28.6596 113.862 27.5699C114.879 26.4801 115.388 24.894 115.388 22.8114V11.8778H118.693ZM124.529 8.6449C123.899 8.6449 123.367 8.42696 122.931 7.99106C122.495 7.55517 122.277 7.02242 122.277 6.39279C122.277 5.76317 122.495 5.23042 122.931 4.79452C123.367 4.35863 123.899 4.14069 124.529 4.14069C125.134 4.14069 125.643 4.35863 126.055 4.79452C126.491 5.23042 126.709 5.76317 126.709 6.39279C126.709 7.02242 126.491 7.55517 126.055 7.99106C125.643 8.42696 125.134 8.6449 124.529 8.6449ZM126.127 11.8778V31.7835H122.822V11.8778H126.127ZM137.355 32.1104C135.829 32.1104 134.462 31.8561 133.25 31.3476C132.039 30.8149 131.083 30.0884 130.381 29.1681C129.678 28.2237 129.291 27.1461 129.218 25.9353H132.633C132.729 26.9282 133.19 27.7393 134.013 28.369C134.861 28.9987 135.962 29.3134 137.319 29.3134C138.578 29.3134 139.571 29.035 140.297 28.478C141.024 27.921 141.387 27.2188 141.387 26.3712C141.387 25.4994 141 24.8577 140.225 24.446C139.449 24.0101 138.251 23.5863 136.629 23.1746C135.152 22.7872 133.94 22.3997 132.996 22.0123C132.075 21.6005 131.276 21.0073 130.599 20.2324C129.945 19.4332 129.618 18.392 129.618 17.1085C129.618 16.0914 129.921 15.1591 130.526 14.3115C131.131 13.4639 131.991 12.798 133.105 12.3137C134.219 11.8051 135.49 11.5508 136.919 11.5508C139.122 11.5508 140.902 12.1079 142.259 13.2218C143.615 14.3357 144.342 15.8613 144.438 17.7986H141.133C141.06 16.7574 140.637 15.9219 139.861 15.2923C139.111 14.6626 138.094 14.3478 136.81 14.3478C135.624 14.3478 134.679 14.6021 133.977 15.1106C133.274 15.6192 132.923 16.2852 132.923 17.1085C132.923 17.7623 133.129 18.3072 133.541 18.7431C133.977 19.1548 134.509 19.4937 135.139 19.7601C135.793 20.0023 136.689 20.2808 137.827 20.5956C139.256 20.983 140.419 21.3706 141.314 21.758C142.21 22.1212 142.973 22.6782 143.603 23.4289C144.257 24.1796 144.596 25.1603 144.62 26.3712C144.62 27.4609 144.317 28.4417 143.712 29.3134C143.107 30.1852 142.246 30.8754 141.133 31.3839C140.043 31.8683 138.784 32.1104 137.355 32.1104ZM174.35 11.8778L168.139 31.7835H164.724L159.929 15.9824L155.135 31.7835H151.72L145.472 11.8778H148.851L153.427 28.587L158.367 11.8778H161.746L166.577 28.6233L171.081 11.8778H174.35ZM174.943 21.758C174.943 19.7238 175.354 17.9439 176.178 16.4183C177.001 14.8685 178.127 13.6698 179.556 12.8222C181.009 11.9746 182.618 11.5508 184.387 11.5508C186.131 11.5508 187.644 11.9262 188.928 12.6769C190.21 13.4276 191.167 14.372 191.797 15.5102V11.8778H195.139V31.7835H191.797V28.0784C191.143 29.2408 190.163 30.2094 188.855 30.9844C187.571 31.735 186.069 32.1104 184.351 32.1104C182.582 32.1104 180.984 31.6745 179.556 30.8027C178.127 29.931 177.001 28.7081 176.178 27.134C175.354 25.5599 174.943 23.768 174.943 21.758ZM191.797 21.7943C191.797 20.2929 191.494 18.9852 190.889 17.8713C190.283 16.7574 189.46 15.9098 188.419 15.3286C187.402 14.7232 186.276 14.4205 185.041 14.4205C183.806 14.4205 182.68 14.7111 181.663 15.2923C180.646 15.8734 179.834 16.721 179.229 17.835C178.623 18.9489 178.321 20.2565 178.321 21.758C178.321 23.2836 178.623 24.6155 179.229 25.7537C179.834 26.8676 180.646 27.7273 181.663 28.3327C182.68 28.9139 183.806 29.2045 185.041 29.2045C186.276 29.2045 187.402 28.9139 188.419 28.3327C189.46 27.7273 190.283 26.8676 190.889 25.7537C191.494 24.6155 191.797 23.2958 191.797 21.7943ZM202.578 15.5465C203.231 14.4083 204.2 13.4639 205.484 12.7132C206.791 11.9383 208.304 11.5508 210.024 11.5508C211.791 11.5508 213.39 11.9746 214.819 12.8222C216.272 13.6698 217.409 14.8685 218.233 16.4183C219.056 17.9439 219.468 19.7238 219.468 21.758C219.468 23.768 219.056 25.5599 218.233 27.134C217.409 28.7081 216.272 29.931 214.819 30.8027C213.39 31.6745 211.791 32.1104 210.024 32.1104C208.328 32.1104 206.828 31.735 205.52 30.9844C204.236 30.2094 203.255 29.2529 202.578 28.1147V41.2278H199.272V11.8778H202.578V15.5465ZM216.09 21.758C216.09 20.2565 215.787 18.9489 215.182 17.835C214.576 16.721 213.753 15.8734 212.712 15.2923C211.695 14.7111 210.569 14.4205 209.334 14.4205C208.123 14.4205 206.997 14.7232 205.956 15.3286C204.939 15.9098 204.115 16.7694 203.486 17.9076C202.88 19.0215 202.578 20.3172 202.578 21.7943C202.578 23.2958 202.88 24.6155 203.486 25.7537C204.115 26.8676 204.939 27.7273 205.956 28.3327C206.997 28.9139 208.123 29.2045 209.334 29.2045C210.569 29.2045 211.695 28.9139 212.712 28.3327C213.753 27.7273 214.576 26.8676 215.182 25.7537C215.787 24.6155 216.09 23.2836 216.09 21.758Z" fill="white"/>
<path fill-rule="evenodd" clip-rule="evenodd" d="M3.74472 29.4308C2.08262 25.9969 1.1875 22.1842 1.1875 19.1349C1.1875 16.0827 2.11925 12.3149 3.82656 8.93868C5.53275 5.56475 8.03639 2.5375 11.2137 1.02137C14.4138 -0.505603 18.2479 -0.475631 22.5303 2.17826C26.7107 4.76891 31.3207 9.85868 36.2368 18.4423C41.1835 9.85956 45.7568 4.77036 49.8638 2.17971C54.0719 -0.474659 57.7985 -0.50763 60.8876 1.02362C63.9514 2.5424 66.334 5.57291 67.9477 8.94547C69.5632 12.3216 70.4307 16.0869 70.4307 19.1349C70.4307 22.1811 69.5817 25.992 67.9895 29.4255C66.3993 32.855 64.0448 35.9569 60.9988 37.524C57.9256 39.1053 54.205 39.0952 49.9825 36.4046C45.8609 33.7781 41.2515 28.5952 36.2348 19.8275C31.1813 28.5968 26.5012 33.7801 22.2937 36.4063C17.9845 39.0959 14.1649 39.1036 10.9974 37.5261C7.85464 35.9611 5.40536 32.8616 3.74472 29.4308ZM35.8411 19.1343C30.7353 28.0728 26.0563 33.2466 21.9321 35.8208C17.8007 38.3993 14.2327 38.3682 11.3017 36.9086C8.3459 35.4365 5.98556 32.4852 4.3612 29.1292C2.73831 25.7763 1.87308 22.0662 1.87308 19.1349C1.87308 16.2062 2.77207 12.5447 4.43771 9.251C6.1045 5.95495 8.51606 3.0715 11.5077 1.64397C14.4766 0.227287 18.065 0.220678 22.1706 2.76493C26.2674 5.30383 30.8757 10.3837 35.8411 19.1343ZM36.6306 19.1354C41.7015 28.0748 46.3106 33.2488 50.3495 35.8225C54.3946 38.4 57.8567 38.3665 60.6864 36.9106C63.5432 35.4407 65.8114 32.4917 67.3681 29.1344C68.9229 25.7812 69.7451 22.0693 69.7451 19.1349C69.7451 16.202 68.906 12.5381 67.3299 9.24421C65.7522 5.94679 63.4589 3.06662 60.5844 1.64173C57.7351 0.229324 54.261 0.219716 50.2282 2.76349C46.2031 5.3025 41.6301 10.3833 36.6306 19.1354Z" fill="white"/>
<path fill-rule="evenodd" clip-rule="evenodd" d="M5.01469 29.0679C3.41839 25.7574 2.55859 22.0817 2.55859 19.1414C2.55859 16.1982 3.4536 12.5657 5.09335 9.31079C6.73192 6.05828 9.13711 3.1383 12.1911 1.67548C15.2681 0.201648 18.9543 0.23137 23.0691 2.79105C27.0816 5.28706 31.5043 10.1876 36.2196 18.447C40.9643 10.1885 45.3517 5.2885 49.2938 2.7925C53.3373 0.232346 56.9203 0.199607 59.8909 1.67774C62.8361 3.1432 65.1251 6.06646 66.6748 9.31756C68.2262 12.5723 69.0596 16.2024 69.0596 19.1414C69.0596 22.0787 68.244 25.7525 66.7149 29.0627C65.1877 32.3687 62.9259 35.3607 59.9979 36.8729C57.0425 38.3992 53.465 38.3885 49.4076 35.7934C45.4516 33.2628 41.0294 28.2725 36.2177 19.8359C31.3706 28.2741 26.8805 33.2649 22.842 35.7951C18.7014 38.3892 15.0292 38.3975 11.9832 36.8749C8.96241 35.3649 6.60946 32.3751 5.01469 29.0679ZM35.8243 19.1408C30.9245 27.7501 26.435 32.7319 22.4794 35.2101C18.5169 37.6927 15.0972 37.6618 12.2885 36.2578C9.45472 34.8412 7.19042 32 5.63161 28.7673C4.07432 25.5378 3.24417 21.9643 3.24417 19.1414C3.24417 16.3213 4.10668 12.7947 5.70496 9.62217C7.30446 6.44723 9.61785 3.67146 12.486 2.29765C15.3312 0.934864 18.7708 0.927658 22.7084 3.37711C26.6376 5.82139 31.0592 10.7127 35.8243 19.1408ZM36.6131 19.142C41.4795 27.7521 45.9019 32.7341 49.7758 35.2118C53.6552 37.6934 56.9733 37.6601 59.6846 36.2598C62.4233 34.8453 64.5992 32.0066 66.0931 28.7724C67.5851 25.5425 68.3739 21.9673 68.3739 19.1414C68.3739 16.3171 67.5688 12.788 66.0564 9.61538C64.5424 6.43906 62.3424 3.66657 59.5867 2.2954C56.8566 0.936914 53.5269 0.926688 49.6592 3.37565C45.7986 5.82005 41.411 10.7123 36.6131 19.142Z" fill="white"/>
<path fill-rule="evenodd" clip-rule="evenodd" d="M6.28581 28.1795C4.75477 25.0539 3.92969 21.5827 3.92969 18.8044C3.92969 16.0233 4.78861 12.5927 6.36136 9.51953C7.93312 6.44829 10.2406 3.69036 13.1709 2.30867C16.123 0.916692 19.6589 0.945068 23.6053 3.36175C27.4503 5.71634 31.6869 10.3365 36.2025 18.1185C40.746 10.3374 44.9488 5.71777 48.7264 3.36318C52.6043 0.946011 56.0414 0.914707 58.8919 2.31089C61.718 3.69521 63.914 6.45642 65.4005 9.52635C66.8885 12.5994 67.6884 16.0276 67.6884 18.8044C67.6884 21.5796 66.9057 25.0489 65.4392 28.1743C63.9743 31.2959 61.8043 34.122 58.9946 35.5506C56.1587 36.9925 52.7268 36.9819 48.8354 34.5316C45.0442 32.1444 40.8084 27.4396 36.2005 19.4906C31.5588 27.4412 27.2579 32.1465 23.3877 34.5333C19.4166 36.9825 15.894 36.9908 12.9714 35.5527C10.0729 34.1262 7.8155 31.3024 6.28581 28.1795ZM35.8056 18.8038C31.1135 26.9171 26.8152 31.6109 23.0292 33.9459C19.2349 36.2859 15.9612 36.2564 13.2729 34.9335C10.5608 33.599 8.39336 30.922 6.90086 27.8751C5.40971 24.8308 4.61526 21.4632 4.61526 18.8044C4.61526 16.1484 5.44062 12.8252 6.971 9.83481C8.50237 6.84245 10.7169 4.22702 13.4621 2.93264C16.1852 1.64857 19.4783 1.64143 23.2486 3.95033C27.0094 6.2533 31.2426 10.8617 35.8056 18.8038ZM36.5975 18.8051C41.2576 26.9192 45.4917 31.6129 49.1993 33.9476C52.914 36.2865 56.0905 36.2547 58.6851 34.9356C61.3059 33.6031 63.3887 30.9285 64.8191 27.8803C66.2478 24.8357 67.0027 21.4663 67.0027 18.8044C67.0027 16.1441 66.2322 12.8185 64.7841 9.82799C63.3345 6.83431 61.2286 4.22218 58.5915 2.93044C55.9786 1.65056 52.7911 1.6405 49.0876 3.94891C45.3926 6.25199 41.1919 10.8613 36.5975 18.8051Z" fill="white"/>
<path fill-rule="evenodd" clip-rule="evenodd" d="M7.55578 27.8165C6.09054 24.8144 5.30078 21.4802 5.30078 18.8108C5.30078 16.1387 6.12297 12.8433 7.62815 9.8915C9.13229 6.94167 11.3413 4.29101 14.1483 2.96265C16.9774 1.62383 20.3653 1.65195 24.1441 3.9744C27.8212 6.23435 31.8705 10.6653 36.1855 18.1232C40.5268 10.6662 44.5437 6.23578 48.1564 3.97583C51.8696 1.65289 55.1632 1.62183 57.8952 2.96488C60.6026 4.29587 62.705 6.94983 64.1275 9.89831C65.5516 12.85 66.3171 16.143 66.3171 18.8108C66.3171 21.477 65.5681 24.8095 64.1645 27.8113C62.7628 30.8093 60.6853 33.5257 57.9936 34.8992C55.2754 36.2862 51.9868 36.2751 48.2606 33.9203C44.635 31.6291 40.5863 27.1168 36.1834 19.4987C31.748 27.1183 27.6371 31.631 23.936 33.922C20.1335 36.2757 16.7582 36.2845 13.9574 34.9013C11.1807 33.5299 9.01963 30.8159 7.55578 27.8165ZM35.7889 18.8103C31.3026 26.5942 27.1938 31.0961 23.5765 33.3351C19.9512 35.5792 16.8255 35.55 14.2597 34.2827C11.6696 33.0035 9.5982 30.4367 8.17127 27.513C6.74572 24.5922 5.98636 21.3611 5.98636 18.8108C5.98636 16.2634 6.77522 13.0751 8.23825 10.2059C9.70232 7.33463 11.8187 4.82686 14.4404 3.58621C17.0398 2.35602 20.1839 2.3483 23.7865 4.5624C27.3797 6.77077 31.4261 11.1906 35.7889 18.8103ZM36.58 18.8115C41.0357 26.5963 45.083 31.0981 48.6255 33.3368C52.1746 35.5798 55.2069 35.5483 57.6832 34.2847C60.186 33.0076 62.1764 30.4432 63.544 27.5182C64.9098 24.5971 65.6316 21.3642 65.6316 18.8108C65.6316 16.2591 64.895 13.0684 63.5107 10.1991C62.1248 7.32649 60.1123 4.82202 57.594 3.58399C55.1001 2.35803 52.0572 2.34735 48.5186 4.56097C44.9882 6.76946 40.9728 11.1902 36.58 18.8115Z" fill="white"/>
<path fill-rule="evenodd" clip-rule="evenodd" d="M8.82574 28.1418C7.42631 25.2631 6.67188 22.0657 6.67188 19.5054C6.67188 16.9423 7.45731 13.7822 8.89492 10.9516C10.3314 8.12322 12.442 5.57981 15.1257 4.30476C17.8319 3.01906 21.0717 3.04693 24.6829 5.27517C28.1921 7.44048 32.0541 11.6822 36.1683 18.8158C40.3075 11.6831 44.1386 7.44192 47.5863 5.27662C51.1349 3.04789 54.2849 3.01705 56.8984 4.30699C59.4872 5.58468 61.496 8.13138 62.8545 10.9584C64.2146 13.7888 64.9459 16.9466 64.9459 19.5054C64.9459 22.0627 64.2304 25.2581 62.8899 28.1365C61.5513 31.0109 59.5664 33.6174 56.9927 34.936C54.3922 36.2682 51.2467 36.2564 47.6857 33.9971C44.2256 31.8018 40.3642 27.4821 36.1662 20.1951C31.9373 27.4837 28.0165 31.8037 24.4843 33.9988C20.8505 36.2571 17.6224 36.2665 14.9432 34.938C12.2884 33.6216 10.2237 31.0175 8.82574 28.1418ZM35.7721 19.5049C31.4917 26.9595 27.5726 31.2694 24.1238 33.4126C20.6674 35.5605 17.6901 35.5316 15.2465 34.32C12.7785 33.0962 10.8031 30.6396 9.4417 27.8391C8.08172 25.0416 7.35745 21.9472 7.35745 19.5054C7.35745 17.0664 8.10984 14.013 9.50552 11.265C10.9023 8.51486 12.9205 6.11478 15.4187 4.92786C17.8945 3.75158 20.8897 3.74325 24.3243 5.86255C27.7499 7.97631 31.6096 12.2075 35.7721 19.5049ZM36.5625 19.506C40.8137 26.9616 44.6743 31.2714 48.0517 33.4143C51.4354 35.5611 54.3235 35.5298 56.6814 34.3219C59.066 33.1002 60.9642 30.6461 62.269 27.8442C63.5719 25.0465 64.2604 21.9503 64.2604 19.5054C64.2604 17.0622 63.5578 14.0063 62.2372 11.2582C60.9149 8.50671 58.9958 6.10992 56.5964 4.92563C54.2217 3.7536 51.3231 3.74231 47.9495 5.86111C44.5838 7.97498 40.7537 12.2072 36.5625 19.506Z" fill="white"/>
<path fill-rule="evenodd" clip-rule="evenodd" d="M59.7198 27.1206C60.8971 24.5693 61.5189 21.7464 61.5189 19.5184C61.5189 17.2921 60.8843 14.506 59.6912 12.0003C58.4962 9.49094 56.7638 7.30955 54.6019 6.23282C52.4657 5.1688 49.8563 5.15619 46.8126 7.08526C43.776 9.00988 40.3163 12.865 36.5284 19.519C40.3707 26.3162 43.858 30.2423 46.9051 32.1932C49.9578 34.1478 52.5575 34.1168 54.6784 33.0204C56.8269 31.9097 58.5405 29.676 59.7198 27.1206ZM36.133 20.2125C39.9209 26.837 43.4079 30.7711 46.5369 32.7745C49.7675 34.843 52.6268 34.8562 54.9919 33.6333C57.3296 32.4248 59.1293 30.0379 60.3417 27.4106C61.5561 24.7792 62.2045 21.8576 62.2045 19.5184C62.2045 17.1776 61.5418 14.2905 60.3095 11.7027C59.079 9.11866 57.2577 6.78642 54.9064 5.61527C52.5294 4.43139 49.6663 4.46185 46.447 6.50227C43.3293 8.47822 39.8699 12.3408 36.135 18.8245C32.4224 12.3398 28.9349 8.47676 25.7616 6.50081C22.4856 4.46087 19.5416 4.43345 17.0814 5.61301C14.6442 6.78152 12.7306 9.11049 11.4294 11.696C10.1269 14.2838 9.41504 17.1734 9.41504 19.5184C9.41504 21.8607 10.0988 24.7841 11.3665 27.4158C12.6328 30.0443 14.5047 32.4289 16.9158 33.6354C19.3519 34.8543 22.2855 34.8437 25.5821 32.7763C28.7762 30.7731 32.3168 26.8386 36.133 20.2125ZM35.7397 19.5179C31.9776 12.8654 28.4913 9.01121 25.4007 7.08671C22.3019 5.15715 19.6047 5.16675 17.3765 6.23507C15.1252 7.31445 13.3033 9.4991 12.0411 12.007C10.7801 14.5126 10.1006 17.2963 10.1006 19.5184C10.1006 21.7433 10.7548 24.5646 11.9836 27.1154C13.214 29.6695 14.9973 31.9056 17.2212 33.0184C19.42 34.1187 22.1007 34.1473 25.2192 32.1915C28.3308 30.2401 31.8711 26.3142 35.7397 19.5179Z" fill="white"/>
<path fill-rule="evenodd" clip-rule="evenodd" d="M10.0966 27.7788C8.76303 25.0236 8.04395 21.9633 8.04395 19.512C8.04395 17.0578 8.79261 14.033 10.1626 11.3238C11.5315 8.61685 13.5437 6.18066 16.1041 4.95891C18.6872 3.7263 21.7791 3.75393 25.2227 5.888C28.564 7.95865 32.2387 12.0111 36.1522 18.8203C40.0893 12.0119 43.7345 7.96009 47.0171 5.88946C50.4012 3.7549 53.4077 3.72426 55.9028 4.96114C58.3729 6.18556 60.288 8.62501 61.5825 11.3306C62.8787 14.0396 63.5757 17.0621 63.5757 19.512C63.5757 21.9601 62.8937 25.0187 61.6163 27.7736C60.3408 30.5245 58.4485 33.0212 55.9927 34.2847C53.51 35.5622 50.5075 35.5497 47.1118 33.3859C43.8173 31.2865 40.1431 27.1596 36.1501 20.2037C32.1275 27.1612 28.3968 31.2885 25.0336 33.3876C21.5685 35.5504 18.4876 35.5605 15.93 34.2868C13.3971 33.0253 11.4288 30.5309 10.0966 27.7788ZM35.7563 19.5114C31.6819 26.6369 27.9522 30.7548 24.672 32.8021C21.3846 34.8539 18.5555 34.8252 16.2343 33.6691C13.8883 32.5009 12.009 30.1545 10.7131 27.4773C9.41872 24.8031 8.72952 21.8452 8.72952 19.512C8.72952 17.1814 9.44544 14.2629 10.7738 11.6361C12.1033 9.00705 14.0233 6.71466 16.3981 5.5815C18.7501 4.45918 21.5962 4.45024 24.863 6.47467C28.1211 8.49381 31.794 12.5366 35.7563 19.5114ZM36.5459 19.5125C40.5927 26.6389 44.2666 30.7568 47.4789 32.8038C50.6971 34.8546 53.4411 34.8235 55.6805 33.6712C57.947 32.5051 59.7529 30.161 60.9949 27.4824C62.2351 24.8079 62.89 21.8483 62.89 19.512C62.89 17.1771 62.2216 14.2562 60.9646 11.6294C59.7061 8.99889 57.8803 6.70978 55.5996 5.57927C53.3442 4.46122 50.5902 4.44928 47.3815 6.47323C44.1804 8.49248 40.5355 12.5361 36.5459 19.5125Z" fill="white"/>
<path fill-rule="evenodd" clip-rule="evenodd" d="M59.0826 26.7555C60.2279 24.3282 60.8323 21.6428 60.8323 19.525C60.8323 17.4087 60.2155 14.7586 59.0548 12.3746C57.8927 9.98753 56.2079 7.91245 54.1051 6.88802C52.0261 5.87518 49.486 5.86326 46.524 7.69953C43.5709 9.53026 40.2059 13.1966 36.521 19.5255C40.2589 25.9908 43.6507 29.7247 46.6141 31.5806C49.585 33.441 52.1155 33.4117 54.1795 32.368C56.2692 31.3113 57.9357 29.1866 59.0826 26.7555ZM36.1235 20.2075C39.8102 26.5117 43.2047 30.2573 46.2516 32.1655C49.3987 34.1364 52.1834 34.1488 54.4876 32.9837C56.7659 31.8315 58.5203 29.5557 59.7021 27.0509C60.8856 24.5425 61.5178 21.7568 61.5178 19.525C61.5178 17.2916 60.8716 14.5384 59.6706 12.0717C58.4711 9.60784 56.6957 7.38424 54.4041 6.26782C52.0887 5.13983 49.3003 5.16873 46.1641 7.11292C43.1284 8.99488 39.7606 12.6723 36.1254 18.8426C32.5119 12.6714 29.1169 8.99345 26.0269 7.11151C22.8356 5.16781 19.9684 5.14179 17.572 6.26564C15.1971 7.37943 13.3317 9.5997 12.0633 12.0649C10.794 14.5317 10.0996 17.2872 10.0996 19.525C10.0996 21.7598 10.7664 24.5474 12.002 27.0561C13.2362 29.5623 15.061 31.8357 17.4106 32.9857C19.7837 34.1472 22.6408 34.137 25.8521 32.1672C28.9624 30.2594 32.4091 26.5133 36.1235 20.2075ZM35.7279 19.5244C32.0682 13.197 28.6774 9.53157 25.6716 7.70095C22.6559 5.86419 20.0304 5.87321 17.8618 6.8902C15.6718 7.91726 13.8998 9.99567 12.6722 12.3814C11.4456 14.7655 10.7852 17.413 10.7852 19.525C10.7852 21.6397 11.421 24.3232 12.6163 26.7503C13.813 29.1801 15.5474 31.3072 17.7107 32.3661C19.8506 33.4133 22.4601 33.4405 25.495 31.5788C28.5211 29.7227 31.9645 25.9888 35.7279 19.5244Z" fill="white"/>
<path fill-rule="evenodd" clip-rule="evenodd" d="M57.8075 26.39C58.8899 24.0859 59.461 21.5372 59.461 19.5278C59.461 17.52 58.8782 15.0048 57.7814 12.7421C56.6828 10.476 55.0913 8.50861 53.1074 7.53794C51.1476 6.57907 48.752 6.56651 45.955 8.30794C43.1665 10.0441 39.9868 13.5219 36.5035 19.5283C40.0369 25.6644 43.2421 29.2064 46.0403 30.9663C48.8456 32.7308 51.2321 32.7016 53.1776 31.7136C55.1491 30.7124 56.7233 28.6977 57.8075 26.39ZM36.1063 20.2123C39.5881 26.1855 42.7953 29.7384 45.6767 31.5506C48.6586 33.426 51.3002 33.4391 53.4867 32.3287C55.6471 31.2316 57.3087 29.0655 58.4274 26.6842C59.5479 24.2993 60.1466 21.6506 60.1466 19.5278C60.1466 17.4034 59.5346 14.7855 58.3976 12.4401C57.2622 10.0977 55.5803 7.98138 53.4075 6.91826C51.2104 5.84332 48.5655 5.87201 45.594 7.72202C42.7233 9.5093 39.5413 12.9975 36.1083 18.8435C32.6954 12.9966 29.4877 9.50787 26.5657 7.7206C23.5421 5.87108 20.8228 5.8453 18.5493 6.91604C16.2976 7.97654 14.5308 10.0896 13.33 12.4333C12.1283 14.7788 11.4707 17.3991 11.4707 19.5278C11.4707 21.6537 12.1022 24.3042 13.2719 26.6895C14.4403 29.0721 16.1687 31.2357 18.3964 32.3307C20.6479 33.4374 23.3578 33.4266 26.4004 31.5523C29.3417 29.7404 32.5984 26.1869 36.1063 20.2123ZM35.7113 19.5272C32.2517 13.5222 29.0476 10.0454 26.2094 8.30936C23.3616 6.56744 20.885 6.57708 18.8402 7.54014C16.7736 8.51345 15.0998 10.4841 13.9395 12.7489C12.7802 15.0115 12.1563 17.5243 12.1563 19.5278C12.1563 21.534 12.757 24.081 13.8868 26.3848C15.0179 28.6913 16.6563 30.7082 18.6975 31.7115C20.715 32.7033 23.1763 32.7302 26.0422 30.9646C28.8998 29.2042 32.1535 25.6624 35.7113 19.5272Z" fill="white"/>
</g>
<defs>
<clipPath id="clip0_4174_8">
<rect width="219.081" height="42" fill="white" transform="translate(0.620117)"/>
</clipPath>
</defs>
</svg>
