<svg width="28" height="29" viewBox="0 0 28 29" fill="none" xmlns="http://www.w3.org/2000/svg">
<g clip-path="url(#clip0_4389_16)">
<path d="M15.5221 26.8088C15.304 26.7178 15.1617 26.5056 15.1617 26.27L15.1617 19.8799L0.583161 19.8799C0.261267 19.8799 7.5328e-07 19.6187 7.3921e-07 19.2968L3.3137e-07 9.96648C3.17299e-07 9.64459 0.261266 9.38332 0.583161 9.38332L15.1617 9.38332L15.1617 2.96877C15.1617 2.7332 15.304 2.52092 15.521 2.42995C15.739 2.34013 15.9898 2.38911 16.1566 2.55591L27.8288 14.1896C27.9384 14.2992 28.0002 14.4474 28.0002 14.6025C28.0002 14.7576 27.9384 14.9057 27.8299 15.0153L16.1578 26.6828C15.9909 26.8496 15.7402 26.8998 15.5221 26.8088Z" fill="white"/>
</g>
<defs>
<clipPath id="clip0_4389_16">
<rect width="28.0002" height="28.0002" fill="white" transform="matrix(4.37114e-08 1 1 -4.37114e-08 0 0.619629)"/>
</clipPath>
</defs>
</svg>
