<svg width="70" height="71" viewBox="0 0 70 71" fill="none" xmlns="http://www.w3.org/2000/svg">
<circle cx="35" cy="35.5" r="33.6" fill="#D9D9D9"/>
<circle cx="35" cy="35.5" r="33.6" fill="url(#paint0_linear_4389_13)"/>
<circle cx="35" cy="35.5" r="33.6" stroke="#FF6B00" stroke-width="2.8"/>
<g clip-path="url(#clip0_4389_13)">
<path d="M33.4779 47.8088C33.696 47.7178 33.8383 47.5056 33.8383 47.27L33.8383 40.8799L48.4168 40.8799C48.7387 40.8799 49 40.6187 49 40.2968L49 30.9665C49 30.6446 48.7387 30.3833 48.4168 30.3833L33.8383 30.3833L33.8383 23.9688C33.8383 23.7332 33.696 23.5209 33.479 23.43C33.261 23.3401 33.0102 23.3891 32.8434 23.5559L21.1712 35.1896C21.0616 35.2992 20.9998 35.4474 20.9998 35.6025C20.9998 35.7576 21.0616 35.9057 21.1701 36.0153L32.8422 47.6828C33.0091 47.8496 33.2598 47.8998 33.4779 47.8088Z" fill="white"/>
</g>
<defs>
<linearGradient id="paint0_linear_4389_13" x1="-2.6077e-07" y1="35.5" x2="70" y2="35.5" gradientUnits="userSpaceOnUse">
<stop stop-color="#A24604"/>
<stop offset="0.536458" stop-color="#FF6C01"/>
<stop offset="1" stop-color="#A14604"/>
</linearGradient>
<clipPath id="clip0_4389_13">
<rect width="28.0002" height="28.0002" fill="white" transform="translate(49 21.6196) rotate(90)"/>
</clipPath>
</defs>
</svg>
