<svg width="257" height="53" viewBox="0 0 257 53" fill="none" xmlns="http://www.w3.org/2000/svg">
<path d="M102.619 51.7957L106.471 32.0293H122.226C127.221 32.0293 128.948 34.0219 128.948 36.5724C128.948 39.5214 126.105 40.6638 124.325 40.8498C126.078 41.142 128.257 42.3907 128.257 45.2866C128.257 48.395 126.557 51.7957 119.171 51.7957H102.619ZM119.596 36.6521H112.582L112.024 39.5214H119.277C121.004 39.5214 121.429 38.7244 121.429 37.9539C121.429 37.1569 120.924 36.6521 119.596 36.6521ZM118.746 43.7988H111.174L110.563 46.9603H118.374C120.393 46.9603 120.791 46.0305 120.791 45.26C120.791 44.4896 120.446 43.7988 118.746 43.7988Z" fill="url(#paint0_linear_3749_2)"/>
<path d="M102.619 51.7957L106.471 32.0293H122.226C127.221 32.0293 128.948 34.0219 128.948 36.5724C128.948 39.5214 126.105 40.6638 124.325 40.8498C126.078 41.142 128.257 42.3907 128.257 45.2866C128.257 48.395 126.557 51.7957 119.171 51.7957H102.619ZM119.596 36.6521H112.582L112.024 39.5214H119.277C121.004 39.5214 121.429 38.7244 121.429 37.9539C121.429 37.1569 120.924 36.6521 119.596 36.6521ZM118.746 43.7988H111.174L110.563 46.9603H118.374C120.393 46.9603 120.791 46.0305 120.791 45.26C120.791 44.4896 120.446 43.7988 118.746 43.7988Z" fill="url(#paint1_linear_3749_2)"/>
<path d="M191.552 31.684H192.721C202.551 31.684 204.623 36.7584 204.623 40.8232C204.623 45.5523 202.152 52.141 191.552 52.141H190.383C180.579 52.141 178.481 46.9072 178.481 42.8158C178.481 38.2727 180.925 31.684 191.552 31.684ZM197.344 41.0092C197.344 39.176 196.414 36.9975 192.136 36.9975C186.663 36.9975 185.787 40.6107 185.787 42.6564C185.787 44.463 186.716 46.7478 190.994 46.7478C196.892 46.7478 197.344 42.6298 197.344 41.0092Z" fill="url(#paint2_linear_3749_2)"/>
<path d="M191.552 31.684H192.721C202.551 31.684 204.623 36.7584 204.623 40.8232C204.623 45.5523 202.152 52.141 191.552 52.141H190.383C180.579 52.141 178.481 46.9072 178.481 42.8158C178.481 38.2727 180.925 31.684 191.552 31.684ZM197.344 41.0092C197.344 39.176 196.414 36.9975 192.136 36.9975C186.663 36.9975 185.787 40.6107 185.787 42.6564C185.787 44.463 186.716 46.7478 190.994 46.7478C196.892 46.7478 197.344 42.6298 197.344 41.0092Z" fill="url(#paint3_linear_3749_2)"/>
<path d="M214.056 45.2069C214.056 45.9773 214.136 47.5448 217.749 47.5448H217.935C221.575 47.5448 222.159 46.5353 222.159 45.6851C222.159 44.7818 221.601 44.1176 218.865 44.0379L216.607 43.9848C209.938 43.7988 208.211 41.3014 208.211 38.0336C208.211 35.1112 209.965 31.7637 218.971 31.7637H220.06C229.864 31.7637 231.139 34.8986 230.687 38.0868H223.275C223.275 37.3429 223.036 36.1739 219.609 36.1739H219.396C215.969 36.1739 215.517 36.9709 215.517 37.8211C215.517 38.6181 216.075 39.1495 218.679 39.2292L220.964 39.2823C228.11 39.4683 229.598 41.7797 229.598 45.3397C229.598 48.5013 227.765 52.1145 217.935 52.1145H217.297C206.962 52.1145 206.112 48.0231 206.484 45.2069H214.056Z" fill="url(#paint4_linear_3749_2)"/>
<path d="M214.056 45.2069C214.056 45.9773 214.136 47.5448 217.749 47.5448H217.935C221.575 47.5448 222.159 46.5353 222.159 45.6851C222.159 44.7818 221.601 44.1176 218.865 44.0379L216.607 43.9848C209.938 43.7988 208.211 41.3014 208.211 38.0336C208.211 35.1112 209.965 31.7637 218.971 31.7637H220.06C229.864 31.7637 231.139 34.8986 230.687 38.0868H223.275C223.275 37.3429 223.036 36.1739 219.609 36.1739H219.396C215.969 36.1739 215.517 36.9709 215.517 37.8211C215.517 38.6181 216.075 39.1495 218.679 39.2292L220.964 39.2823C228.11 39.4683 229.598 41.7797 229.598 45.3397C229.598 48.5013 227.765 52.1145 217.935 52.1145H217.297C206.962 52.1145 206.112 48.0231 206.484 45.2069H214.056Z" fill="url(#paint5_linear_3749_2)"/>
<path d="M237.925 51.7957L240.715 37.4226H232.957L233.993 32.0293H256.469L255.433 37.4226H247.675L244.886 51.7957H237.925Z" fill="url(#paint6_linear_3749_2)"/>
<path d="M237.925 51.7957L240.715 37.4226H232.957L233.993 32.0293H256.469L255.433 37.4226H247.675L244.886 51.7957H237.925Z" fill="url(#paint7_linear_3749_2)"/>
<path fillRule="evenodd" clipRule="evenodd" d="M154.4 4.72046C167.467 4.72046 178.062 15.3116 178.062 28.3788C178.062 41.446 167.467 52.0438 154.4 52.0438C141.333 52.0438 130.738 41.4461 130.738 28.3788C130.738 15.3115 141.333 4.72046 154.4 4.72046Z" fill="url(#paint8_linear_3749_2)"/>
<path fillRule="evenodd" clipRule="evenodd" d="M154.4 4.72046C167.467 4.72046 178.062 15.3116 178.062 28.3788C178.062 41.446 167.467 52.0438 154.4 52.0438C141.333 52.0438 130.738 41.4461 130.738 28.3788C130.738 15.3115 141.333 4.72046 154.4 4.72046Z" fill="url(#paint9_linear_3749_2)"/>
<path fillRule="evenodd" clipRule="evenodd" d="M153.421 29.3932L153.391 29.3615C153.357 29.3274 153.317 29.3003 153.272 29.2817C153.228 29.2631 153.181 29.2535 153.132 29.2533C153.084 29.2531 153.037 29.2624 152.992 29.2807C152.948 29.2989 152.907 29.3258 152.873 29.3597C152.839 29.3935 152.812 29.4338 152.793 29.4782C152.775 29.5226 152.765 29.5702 152.765 29.6183C152.765 29.6664 152.774 29.714 152.792 29.7585C152.81 29.8031 152.837 29.8435 152.871 29.8777L152.904 29.9093C152.938 29.9432 152.978 29.9702 153.023 29.9886C153.067 30.007 153.114 30.0165 153.162 30.0165C153.21 30.0166 153.258 30.0072 153.302 29.9889C153.346 29.9705 153.387 29.9437 153.421 29.9098C153.455 29.8759 153.482 29.8357 153.5 29.7913C153.518 29.747 153.528 29.6996 153.528 29.6516C153.528 29.6036 153.519 29.5561 153.5 29.5117C153.482 29.4674 153.455 29.4271 153.421 29.3932ZM156.887 25.3768L154.31 27.9534C154.275 27.9874 154.247 28.0279 154.228 28.0727C154.209 28.1175 154.199 28.1656 154.199 28.2143C154.199 28.2629 154.208 28.3112 154.226 28.3562C154.245 28.4012 154.272 28.442 154.307 28.4764C154.341 28.5108 154.382 28.538 154.427 28.5564C154.472 28.5748 154.52 28.5841 154.569 28.5838C154.618 28.5834 154.666 28.5734 154.711 28.5543C154.755 28.5352 154.796 28.5074 154.83 28.4725L157.404 25.8956C157.439 25.8617 157.466 25.8213 157.484 25.7769C157.503 25.7324 157.512 25.6848 157.512 25.6367C157.512 25.5886 157.503 25.5409 157.484 25.4964C157.466 25.4519 157.439 25.4115 157.405 25.3774C157.371 25.3434 157.331 25.3163 157.286 25.2979C157.242 25.2794 157.194 25.2699 157.146 25.2698C157.098 25.2698 157.05 25.2792 157.006 25.2976C156.961 25.3159 156.921 25.3429 156.887 25.3768H156.887ZM162.436 20.3451C162.772 20.6818 162.982 21.1247 163.028 21.5984C163.075 22.0721 162.956 22.5473 162.691 22.943C162.427 23.3387 162.033 23.6305 161.578 23.7685C161.122 23.9066 160.633 23.8825 160.193 23.7003C159.753 23.5181 159.39 23.1891 159.166 22.7693C158.942 22.3494 158.87 21.8649 158.963 21.398C159.056 20.9312 159.308 20.511 159.676 20.2091C160.043 19.9071 160.505 19.7421 160.981 19.7421C161.251 19.7415 161.519 19.7944 161.769 19.8979C162.018 20.0014 162.245 20.1534 162.436 20.3451ZM160.981 19.0081C160.335 19.0083 159.709 19.2323 159.21 19.6421C158.711 20.0518 158.37 20.6219 158.244 21.2552C158.118 21.8886 158.215 22.546 158.52 23.1154C158.824 23.6849 159.317 24.1312 159.913 24.3783C160.51 24.6254 161.174 24.6581 161.791 24.4707C162.409 24.2833 162.943 23.8875 163.302 23.3507C163.661 22.8138 163.823 22.1692 163.759 21.5265C163.696 20.8839 163.412 20.283 162.956 19.8263C162.697 19.5665 162.389 19.3605 162.05 19.2201C161.711 19.0796 161.348 19.0076 160.981 19.0081ZM167.242 23.3395C164.752 29.2735 159.971 33.8795 152.898 37.1576C152.686 35.3015 151.85 33.5722 150.529 32.2513C149.208 30.9305 147.478 30.0959 145.622 29.8835C147.727 25.3402 150.376 21.7433 153.57 19.0926C155.337 17.6235 157.313 16.4256 159.432 15.5382C161.628 15.8062 163.449 16.6611 164.786 17.9968C166.12 19.3299 166.975 21.1468 167.242 23.3392L167.242 23.3395ZM160.758 15.0279C162.576 15.4501 164.114 16.2886 165.305 17.4781C166.491 18.666 167.33 20.2002 167.754 22.0163C168.664 19.4233 169.166 16.5924 169.258 13.5237C166.186 13.615 163.352 14.1164 160.758 15.0279H160.758ZM152.194 37.4771C152.047 35.699 151.273 34.031 150.011 32.7696C148.75 31.5082 147.081 30.7351 145.303 30.5879C144.695 31.9661 144.135 33.4279 143.622 34.9735L147.81 39.1587C149.356 38.6468 150.817 38.0862 152.195 37.4771H152.194ZM144.01 36.3984C142.497 37.0708 141.375 37.9785 140.643 39.1216C139.928 40.2399 139.579 41.594 139.598 43.1838C141.188 43.2032 142.542 42.8547 143.661 42.1385C144.803 41.4067 145.71 40.2846 146.384 38.7722L144.01 36.3984ZM149.399 22.3015H144.547C142.225 24.3121 140.495 26.9179 139.543 29.8385H144.836C146.145 26.9632 147.666 24.4509 149.399 22.3015ZM152.943 37.9472V43.2405C155.863 42.2889 158.469 40.559 160.48 38.2368V33.3873C158.332 35.119 155.819 36.6389 152.943 37.9472Z" fill="black"/>
<path d="M15.8085 5.00667C26.5949 5.00667 27.9764 9.68257 27.5514 13.3489H20.2718C20.2453 12.6316 20.0327 10.2936 15.224 10.2936C10.3355 10.2936 9.16656 13.5083 9.16656 15.8728C9.16656 17.892 10.2027 20.0439 14.0816 20.0439C18.6778 20.0439 19.4482 17.4669 19.5545 17.0152H26.8606C26.4355 20.0174 24.8149 25.4106 14.6661 25.4106H13.4971C3.90617 25.4106 1.78076 20.5487 1.78076 16.0588C1.78076 11.7283 4.25155 5.00667 14.6395 5.00667H15.8085ZM38.5983 10.3202L37.9341 13.774H45.2136C47.2859 13.774 47.711 12.6847 47.711 11.8611C47.711 11.011 47.3125 10.3202 45.6387 10.3202H38.5983ZM49.9161 15.5806C51.8821 16.0854 54.0872 17.3606 53.3168 21.2661L52.9183 23.3383C52.7057 24.3213 52.8651 24.6933 52.998 24.959L52.9714 25.0918H45.745C45.6653 24.959 45.5856 24.6136 45.7184 23.8697L46.0372 22.1694C46.542 19.6189 45.6122 18.875 42.8491 18.875H36.9245L35.729 25.0918H28.7151L32.5675 5.32548H47.6579C53.8481 5.32548 55.2562 8.06194 55.2562 10.3999C55.2562 13.9068 52.2541 15.2618 49.9161 15.5806ZM62.2825 25.0918L63.6375 18.0248L56.0126 5.32548H63.9828L67.968 12.3393L74.7162 5.32548H82.8459L70.6248 18.0514L69.2432 25.0918H62.2825ZM97.0454 19.1406H88.9689L87.8265 25.0918H80.8126L84.6649 5.32548H97.7893C104.564 5.32548 106.53 7.74313 106.53 11.7814C106.53 15.6337 104.511 19.1406 97.0454 19.1406ZM90.6692 10.3202L89.9519 14.1725H96.5406C98.6661 14.1725 99.2505 13.0832 99.2505 11.9674C99.2505 11.011 98.7723 10.3202 97.0189 10.3202H90.6692ZM113.636 25.0918L116.426 10.7187H108.668L109.704 5.32548H132.18L131.144 10.7187H123.386L120.597 25.0918H113.636Z" fill="white"/>
<defs>
<linearGradient id="paint0_linear_3749_2" x1="107" y1="39.5" x2="253.5" y2="36.5" gradientUnits="userSpaceOnUse">
<stop stop-color="#52188B"/>
<stop offset="0.441942" stop-color="#9F3DFF"/>
<stop offset="1" stop-color="#52188B"/>
</linearGradient>
<linearGradient id="paint1_linear_3749_2" x1="102.619" y1="28.4308" x2="256.469" y2="28.4308" gradientUnits="userSpaceOnUse">
<stop stop-color="#A24604"/>
<stop offset="0.536458" stop-color="#FF6C01"/>
<stop offset="1" stop-color="#A14604"/>
</linearGradient>
<linearGradient id="paint2_linear_3749_2" x1="107" y1="39.5" x2="253.5" y2="36.5" gradientUnits="userSpaceOnUse">
<stop stop-color="#52188B"/>
<stop offset="0.441942" stop-color="#9F3DFF"/>
<stop offset="1" stop-color="#52188B"/>
</linearGradient>
<linearGradient id="paint3_linear_3749_2" x1="102.619" y1="28.4308" x2="256.469" y2="28.4308" gradientUnits="userSpaceOnUse">
<stop stop-color="#A24604"/>
<stop offset="0.536458" stop-color="#FF6C01"/>
<stop offset="1" stop-color="#A14604"/>
</linearGradient>
<linearGradient id="paint4_linear_3749_2" x1="107" y1="39.5" x2="253.5" y2="36.5" gradientUnits="userSpaceOnUse">
<stop stop-color="#52188B"/>
<stop offset="0.441942" stop-color="#9F3DFF"/>
<stop offset="1" stop-color="#52188B"/>
</linearGradient>
<linearGradient id="paint5_linear_3749_2" x1="102.619" y1="28.4308" x2="256.469" y2="28.4308" gradientUnits="userSpaceOnUse">
<stop stop-color="#A24604"/>
<stop offset="0.536458" stop-color="#FF6C01"/>
<stop offset="1" stop-color="#A14604"/>
</linearGradient>
<linearGradient id="paint6_linear_3749_2" x1="107" y1="39.5" x2="253.5" y2="36.5" gradientUnits="userSpaceOnUse">
<stop stop-color="#52188B"/>
<stop offset="0.441942" stop-color="#9F3DFF"/>
<stop offset="1" stop-color="#52188B"/>
</linearGradient>
<linearGradient id="paint7_linear_3749_2" x1="102.619" y1="28.4308" x2="256.469" y2="28.4308" gradientUnits="userSpaceOnUse">
<stop stop-color="#A24604"/>
<stop offset="0.536458" stop-color="#FF6C01"/>
<stop offset="1" stop-color="#A14604"/>
</linearGradient>
<linearGradient id="paint8_linear_3749_2" x1="107" y1="39.5" x2="253.5" y2="36.5" gradientUnits="userSpaceOnUse">
<stop stop-color="#52188B"/>
<stop offset="0.441942" stop-color="#9F3DFF"/>
<stop offset="1" stop-color="#52188B"/>
</linearGradient>
<linearGradient id="paint9_linear_3749_2" x1="102.619" y1="28.4308" x2="256.469" y2="28.4308" gradientUnits="userSpaceOnUse">
<stop stop-color="#A24604"/>
<stop offset="0.536458" stop-color="#FF6C01"/>
<stop offset="1" stop-color="#A14604"/>
</linearGradient>
</defs>
</svg>
